<?xml version="1.0" encoding="UTF-8"?>
<svg width="313px" height="86px" viewBox="0 0 313 86" version="1.1" xmlns="http://www.w3.org/2000/svg" xmlns:xlink="http://www.w3.org/1999/xlink">
    <title>Group 6</title>
    <g id="Page-1" stroke="none" stroke-width="1" fill="none" fill-rule="evenodd">
        <g id="Home-v4" transform="translate(-100.000000, -6151.000000)">
            <g id="SBJ-LOGO-NIEUW-(1)" transform="translate(100.792000, 6151.000000)">
                <g id="Group-6" transform="translate(0.000000, 0.000000)">
                    <polyline id="Fill-8" fill="#636F72" points="131.935601 46.5496347 131.935601 0 178.485685 0 178.485685 46.5496347 131.935601 46.5496347"></polyline>
                    <polyline id="Fill-10" fill="#FFFFFF" points="139.17703 28.3893973 143.126859 32.3392265 143.126859 35.3577039 167.293754 35.3577039 167.293754 11.1919308 156.826707 11.1919308 152.876878 7.24210159 166.636197 7.24210159 171.243583 7.24210159 171.243583 39.3075331 166.636197 39.3075331 144.526131 39.3075331 139.17703 39.3075331 139.17703 34.7001471 139.17703 28.3893973"></polyline>
                    <g id="STUDIO-BENNIE-JANSEN" transform="translate(0.000000, 59.440000)" fill="#000000" fill-rule="nonzero">
                        <path d="M5.832,25.92 C3.912,25.92 2.46,25.374 1.476,24.282 C0.492,23.19 -1.77635684e-15,21.624 -1.77635684e-15,19.584 L-1.77635684e-15,18.144 L3.744,18.144 L3.744,19.872 C3.744,21.504 4.428,22.32 5.796,22.32 C6.468,22.32 6.978,22.122 7.326,21.726 C7.674,21.33 7.848,20.688 7.848,19.8 C7.848,18.744 7.608,17.814 7.128,17.01 C6.648,16.206 5.76,15.24 4.464,14.112 C2.832,12.672 1.692,11.37 1.044,10.206 C0.396,9.042 0.072,7.728 0.072,6.264 C0.072,4.272 0.576,2.73 1.584,1.638 C2.592,0.546 4.056,0 5.976,0 C7.872,0 9.306,0.546 10.278,1.638 C11.25,2.73 11.736,4.296 11.736,6.336 L11.736,7.38 L7.992,7.38 L7.992,6.084 C7.992,5.22 7.824,4.59 7.488,4.194 C7.152,3.798 6.66,3.6 6.012,3.6 C4.692,3.6 4.032,4.404 4.032,6.012 C4.032,6.924 4.278,7.776 4.77,8.568 C5.262,9.36 6.156,10.32 7.452,11.448 C9.108,12.888 10.248,14.196 10.872,15.372 C11.496,16.548 11.808,17.928 11.808,19.512 C11.808,21.576 11.298,23.16 10.278,24.264 C9.258,25.368 7.776,25.92 5.832,25.92 Z" id="Path"></path>
                        <polygon id="Path" points="20.629895 3.96 16.489895 3.96 16.489895 0.36 28.729895 0.36 28.729895 3.96 24.589895 3.96 24.589895 25.56 20.629895 25.56"></polygon>
                        <path d="M39.85579,25.92 C37.93579,25.92 36.47179,25.374 35.46379,24.282 C34.45579,23.19 33.95179,21.624 33.95179,19.584 L33.95179,0.36 L37.91179,0.36 L37.91179,19.872 C37.91179,20.736 38.08579,21.36 38.43379,21.744 C38.78179,22.128 39.27979,22.32 39.92779,22.32 C40.57579,22.32 41.07379,22.128 41.42179,21.744 C41.76979,21.36 41.94379,20.736 41.94379,19.872 L41.94379,0.36 L45.75979,0.36 L45.75979,19.584 C45.75979,21.624 45.25579,23.19 44.24779,24.282 C43.23979,25.374 41.77579,25.92 39.85579,25.92 Z" id="Path"></path>
                        <path d="M52.025685,0.36 L58.073685,0.36 C60.041685,0.36 61.517685,0.888 62.501685,1.944 C63.485685,3 63.977685,4.548 63.977685,6.588 L63.977685,19.332 C63.977685,21.372 63.485685,22.92 62.501685,23.976 C61.517685,25.032 60.041685,25.56 58.073685,25.56 L52.025685,25.56 L52.025685,0.36 Z M58.001685,21.96 C58.649685,21.96 59.147685,21.768 59.495685,21.384 C59.843685,21 60.017685,20.376 60.017685,19.512 L60.017685,6.408 C60.017685,5.544 59.843685,4.92 59.495685,4.536 C59.147685,4.152 58.649685,3.96 58.001685,3.96 L55.985685,3.96 L55.985685,21.96 L58.001685,21.96 Z" id="Shape"></path>
                        <polygon id="Path" points="70.09958 0.36 74.05958 0.36 74.05958 25.56 70.09958 25.56"></polygon>
                        <path d="M86.193475,25.92 C84.249475,25.92 82.761475,25.368 81.729475,24.264 C80.697475,23.16 80.181475,21.6 80.181475,19.584 L80.181475,6.336 C80.181475,4.32 80.697475,2.76 81.729475,1.656 C82.761475,0.552 84.249475,0 86.193475,0 C88.137475,0 89.625475,0.552 90.657475,1.656 C91.689475,2.76 92.205475,4.32 92.205475,6.336 L92.205475,19.584 C92.205475,21.6 91.689475,23.16 90.657475,24.264 C89.625475,25.368 88.137475,25.92 86.193475,25.92 Z M86.193475,22.32 C87.561475,22.32 88.245475,21.492 88.245475,19.836 L88.245475,6.084 C88.245475,4.428 87.561475,3.6 86.193475,3.6 C84.825475,3.6 84.141475,4.428 84.141475,6.084 L84.141475,19.836 C84.141475,21.492 84.825475,22.32 86.193475,22.32 Z" id="Shape"></path>
                        <path d="M107.545265,0.36 L113.521265,0.36 C115.561265,0.36 117.049265,0.834 117.985265,1.782 C118.921265,2.73 119.389265,4.188 119.389265,6.156 L119.389265,7.164 C119.389265,8.46 119.179265,9.516 118.759265,10.332 C118.339265,11.148 117.697265,11.736 116.833265,12.096 L116.833265,12.168 C118.801265,12.84 119.785265,14.592 119.785265,17.424 L119.785265,19.584 C119.785265,21.528 119.275265,23.01 118.255265,24.03 C117.235265,25.05 115.741265,25.56 113.773265,25.56 L107.545265,25.56 L107.545265,0.36 Z M113.053265,10.62 C113.845265,10.62 114.439265,10.416 114.835265,10.008 C115.231265,9.6 115.429265,8.916 115.429265,7.956 L115.429265,6.552 C115.429265,5.64 115.267265,4.98 114.943265,4.572 C114.619265,4.164 114.109265,3.96 113.413265,3.96 L111.505265,3.96 L111.505265,10.62 L113.053265,10.62 Z M113.773265,21.96 C114.469265,21.96 114.985265,21.774 115.321265,21.402 C115.657265,21.03 115.825265,20.388 115.825265,19.476 L115.825265,17.28 C115.825265,16.128 115.627265,15.33 115.231265,14.886 C114.835265,14.442 114.181265,14.22 113.269265,14.22 L111.505265,14.22 L111.505265,21.96 L113.773265,21.96 Z" id="Shape"></path>
                        <polygon id="Path" points="125.54716 0.36 136.34716 0.36 136.34716 3.96 129.50716 3.96 129.50716 10.62 134.94316 10.62 134.94316 14.22 129.50716 14.22 129.50716 21.96 136.34716 21.96 136.34716 25.56 125.54716 25.56"></polygon>
                        <polygon id="Path" points="142.073055 0.36 147.041055 0.36 150.893055 15.444 150.965055 15.444 150.965055 0.36 154.493055 0.36 154.493055 25.56 150.425055 25.56 145.673055 7.164 145.601055 7.164 145.601055 25.56 142.073055 25.56"></polygon>
                        <polygon id="Path" points="160.90295 0.36 165.87095 0.36 169.72295 15.444 169.79495 15.444 169.79495 0.36 173.32295 0.36 173.32295 25.56 169.25495 25.56 164.50295 7.164 164.43095 7.164 164.43095 25.56 160.90295 25.56"></polygon>
                        <polygon id="Path" points="179.732845 0.36 183.692845 0.36 183.692845 25.56 179.732845 25.56"></polygon>
                        <polygon id="Path" points="190.10274 0.36 200.90274 0.36 200.90274 3.96 194.06274 3.96 194.06274 10.62 199.49874 10.62 199.49874 14.22 194.06274 14.22 194.06274 21.96 200.90274 21.96 200.90274 25.56 190.10274 25.56"></polygon>
                        <path d="M216.78253,25.704 C216.06253,25.704 215.45053,25.656 214.94653,25.56 L214.94653,21.96 C215.33053,22.056 215.76253,22.104 216.24253,22.104 C217.03453,22.104 217.62253,21.906 218.00653,21.51 C218.39053,21.114 218.58253,20.508 218.58253,19.692 L218.58253,0.36 L222.54253,0.36 L222.54253,19.584 C222.54253,21.648 222.06853,23.184 221.12053,24.192 C220.17253,25.2 218.72653,25.704 216.78253,25.704 Z" id="Path"></path>
                        <path d="M231.832425,0.36 L237.196425,0.36 L241.300425,25.56 L237.340425,25.56 L236.620425,20.556 L236.620425,20.628 L232.120425,20.628 L231.400425,25.56 L227.728425,25.56 L231.832425,0.36 Z M236.152425,17.208 L234.388425,4.752 L234.316425,4.752 L232.588425,17.208 L236.152425,17.208 Z" id="Shape"></path>
                        <polygon id="Path" points="246.66632 0.36 251.63432 0.36 255.48632 15.444 255.55832 15.444 255.55832 0.36 259.08632 0.36 259.08632 25.56 255.01832 25.56 250.26632 7.164 250.19432 7.164 250.19432 25.56 246.66632 25.56"></polygon>
                        <path d="M270.644215,25.92 C268.724215,25.92 267.272215,25.374 266.288215,24.282 C265.304215,23.19 264.812215,21.624 264.812215,19.584 L264.812215,18.144 L268.556215,18.144 L268.556215,19.872 C268.556215,21.504 269.240215,22.32 270.608215,22.32 C271.280215,22.32 271.790215,22.122 272.138215,21.726 C272.486215,21.33 272.660215,20.688 272.660215,19.8 C272.660215,18.744 272.420215,17.814 271.940215,17.01 C271.460215,16.206 270.572215,15.24 269.276215,14.112 C267.644215,12.672 266.504215,11.37 265.856215,10.206 C265.208215,9.042 264.884215,7.728 264.884215,6.264 C264.884215,4.272 265.388215,2.73 266.396215,1.638 C267.404215,0.546 268.868215,0 270.788215,0 C272.684215,0 274.118215,0.546 275.090215,1.638 C276.062215,2.73 276.548215,4.296 276.548215,6.336 L276.548215,7.38 L272.804215,7.38 L272.804215,6.084 C272.804215,5.22 272.636215,4.59 272.300215,4.194 C271.964215,3.798 271.472215,3.6 270.824215,3.6 C269.504215,3.6 268.844215,4.404 268.844215,6.012 C268.844215,6.924 269.090215,7.776 269.582215,8.568 C270.074215,9.36 270.968215,10.32 272.264215,11.448 C273.920215,12.888 275.060215,14.196 275.684215,15.372 C276.308215,16.548 276.620215,17.928 276.620215,19.512 C276.620215,21.576 276.110215,23.16 275.090215,24.264 C274.070215,25.368 272.588215,25.92 270.644215,25.92 Z" id="Path"></path>
                        <polygon id="Path" points="282.34611 0.36 293.14611 0.36 293.14611 3.96 286.30611 3.96 286.30611 10.62 291.74211 10.62 291.74211 14.22 286.30611 14.22 286.30611 21.96 293.14611 21.96 293.14611 25.56 282.34611 25.56"></polygon>
                        <polygon id="Path" points="298.872005 0.36 303.840005 0.36 307.692005 15.444 307.764005 15.444 307.764005 0.36 311.292005 0.36 311.292005 25.56 307.224005 25.56 302.472005 7.164 302.400005 7.164 302.400005 25.56 298.872005 25.56"></polygon>
                    </g>
                </g>
            </g>
        </g>
    </g>
</svg>