<svg width="732" height="37" viewBox="0 0 732 37" fill="none" xmlns="http://www.w3.org/2000/svg">
<path d="M0.45 36V0.999998H14.8C17.2333 0.999998 19.2833 1.38333 20.95 2.15C22.6167 2.91666 23.8667 3.98333 24.7 5.35C25.5667 6.68333 26 8.23333 26 10C26 11.7667 25.6167 13.25 24.85 14.45C24.0833 15.65 23.0667 16.5833 21.8 17.25C20.5667 17.8833 19.2 18.25 17.7 18.35L18.5 17.8C20.1 17.8667 21.5167 18.3 22.75 19.1C24.0167 19.8667 25 20.9 25.7 22.2C26.4333 23.5 26.8 24.9167 26.8 26.45C26.8 28.3167 26.35 29.9667 25.45 31.4C24.55 32.8333 23.25 33.9667 21.55 34.8C19.85 35.6 17.7667 36 15.3 36H0.45ZM7.2 30.5H14.2C16.0333 30.5 17.45 30.0833 18.45 29.25C19.45 28.4167 19.95 27.2167 19.95 25.65C19.95 24.0833 19.4333 22.8667 18.4 22C17.3667 21.1 15.9333 20.65 14.1 20.65H7.2V30.5ZM7.2 15.6H13.7C15.4667 15.6 16.8 15.2 17.7 14.4C18.6333 13.6 19.1 12.4667 19.1 11C19.1 9.56667 18.6333 8.45 17.7 7.65C16.8 6.81667 15.45 6.4 13.65 6.4H7.2V15.6ZM32.3348 36V0.999998H55.3348V6.45H39.0848V15.6H53.8348V20.85H39.0848V30.55H55.3348V36H32.3348ZM61.4852 36V0.999998H68.2352L84.3352 25.15V0.999998H91.0852V36H84.3352L68.2352 11.9V36H61.4852ZM97.9109 36V0.999998H104.661L120.761 25.15V0.999998H127.511V36H120.761L104.661 11.9V36H97.9109ZM134.337 36V0.999998H141.087V36H134.337ZM147.96 36V0.999998H170.96V6.45H154.71V15.6H169.46V20.85H154.71V30.55H170.96V36H147.96ZM198.228 36.6C195.961 36.6 193.961 36.1667 192.228 35.3C190.528 34.4333 189.211 33.1667 188.278 31.5C187.344 29.8 186.878 27.75 186.878 25.35H193.628C193.628 26.4167 193.778 27.35 194.078 28.15C194.411 28.9167 194.894 29.5167 195.528 29.95C196.194 30.35 197.044 30.55 198.078 30.55C199.078 30.55 199.878 30.3667 200.478 30C201.111 29.6 201.561 29.05 201.828 28.35C202.128 27.6167 202.278 26.75 202.278 25.75V0.999998H209.028V25.75C209.028 29.25 208.044 31.9333 206.078 33.8C204.144 35.6667 201.528 36.6 198.228 36.6ZM212.065 36L224.865 0.999998H232.515L245.265 36H238.115L228.665 8.7L219.165 36H212.065ZM217.715 28.05L219.515 22.8H237.315L239.065 28.05H217.715ZM249.864 36V0.999998H256.614L272.714 25.15V0.999998H279.464V36H272.714L256.614 11.9V36H249.864ZM298.34 36.6C295.807 36.6 293.54 36.1667 291.54 35.3C289.573 34.4333 288.007 33.1667 286.84 31.5C285.707 29.8333 285.123 27.8167 285.09 25.45H292.24C292.273 26.4833 292.54 27.4167 293.04 28.25C293.54 29.0833 294.223 29.75 295.09 30.25C295.99 30.7167 297.057 30.95 298.29 30.95C299.357 30.95 300.273 30.7833 301.04 30.45C301.84 30.0833 302.457 29.5833 302.89 28.95C303.323 28.3167 303.54 27.5667 303.54 26.7C303.54 25.7 303.29 24.8667 302.79 24.2C302.323 23.5333 301.657 22.9667 300.79 22.5C299.957 22.0333 298.973 21.6167 297.84 21.25C296.74 20.85 295.573 20.4333 294.34 20C291.573 19.1 289.457 17.9 287.99 16.4C286.557 14.9 285.84 12.9167 285.84 10.45C285.84 8.35 286.34 6.55 287.34 5.05C288.373 3.55 289.79 2.4 291.59 1.6C293.39 0.799999 295.44 0.399999 297.74 0.399999C300.107 0.399999 302.173 0.816666 303.94 1.65C305.74 2.45 307.157 3.61666 308.19 5.15C309.257 6.68333 309.807 8.48333 309.84 10.55H302.64C302.607 9.78333 302.373 9.06667 301.94 8.4C301.54 7.7 300.973 7.15 300.24 6.75C299.507 6.31666 298.64 6.1 297.64 6.1C296.773 6.06666 295.973 6.2 295.24 6.5C294.54 6.8 293.973 7.25 293.54 7.85C293.14 8.41667 292.94 9.13333 292.94 10C292.94 10.8333 293.14 11.5333 293.54 12.1C293.973 12.6667 294.557 13.1667 295.29 13.6C296.023 14 296.89 14.3833 297.89 14.75C298.89 15.0833 299.973 15.4333 301.14 15.8C302.873 16.4 304.473 17.1167 305.94 17.95C307.407 18.75 308.573 19.8 309.44 21.1C310.307 22.4 310.74 24.1167 310.74 26.25C310.74 28.0833 310.257 29.7833 309.29 31.35C308.323 32.9167 306.923 34.1833 305.09 35.15C303.29 36.1167 301.04 36.6 298.34 36.6ZM316.466 36V0.999998H339.466V6.45H323.216V15.6H337.966V20.85H323.216V30.55H339.466V36H316.466ZM345.616 36V0.999998H352.366L368.466 25.15V0.999998H375.216V36H368.466L352.366 11.9V36H345.616ZM391.459 36L404.259 0.999998H411.909L424.659 36H417.509L408.059 8.7L398.559 36H391.459ZM397.109 28.05L398.909 22.8H416.709L418.459 28.05H397.109ZM429.259 36V0.999998H442.309C445.142 0.999998 447.475 1.48333 449.309 2.45C451.142 3.41667 452.509 4.71667 453.409 6.35C454.309 7.95 454.759 9.73333 454.759 11.7C454.759 13.5667 454.325 15.3167 453.459 16.95C452.592 18.55 451.225 19.85 449.359 20.85C447.525 21.8167 445.159 22.3 442.259 22.3H436.009V36H429.259ZM447.409 36L440.209 20.6H447.509L455.109 36H447.409ZM436.009 17.4H441.909C443.942 17.4 445.442 16.9 446.409 15.9C447.375 14.9 447.859 13.5833 447.859 11.95C447.859 10.3167 447.375 9.03333 446.409 8.1C445.475 7.13333 443.975 6.65 441.909 6.65H436.009V17.4ZM476.502 36.6C473.002 36.6 469.985 35.85 467.452 34.35C464.952 32.8167 463.018 30.7 461.652 28C460.318 25.2667 459.652 22.1167 459.652 18.55C459.652 14.9833 460.318 11.8333 461.652 9.1C463.018 6.36667 464.952 4.23333 467.452 2.7C469.985 1.16667 473.002 0.399999 476.502 0.399999C480.735 0.399999 484.202 1.45 486.902 3.55C489.602 5.65 491.285 8.61667 491.952 12.45H484.602C484.168 10.5833 483.252 9.13333 481.852 8.1C480.485 7.03333 478.685 6.5 476.452 6.5C474.385 6.5 472.602 7 471.102 8C469.635 8.96667 468.502 10.35 467.702 12.15C466.902 13.9167 466.502 16.05 466.502 18.55C466.502 21.0167 466.902 23.15 467.702 24.95C468.502 26.75 469.635 28.1333 471.102 29.1C472.602 30.0667 474.385 30.55 476.452 30.55C478.685 30.55 480.485 30.0667 481.852 29.1C483.218 28.1 484.118 26.7167 484.552 24.95H491.952C491.285 28.5833 489.602 31.4333 486.902 33.5C484.202 35.5667 480.735 36.6 476.502 36.6ZM519.766 36V0.999998H526.516V36H519.766ZM497.716 36V0.999998H504.466V36H497.716ZM503.516 20.85V15.4H520.916V20.85H503.516ZM533.409 36V0.999998H540.159V36H533.409ZM555.182 36V6.45H544.932V0.999998H572.082V6.45H561.882V36H555.182ZM576.866 36V0.999998H599.866V6.45H583.616V15.6H598.366V20.85H583.616V30.55H599.866V36H576.866ZM621.716 36.6C618.216 36.6 615.2 35.85 612.666 34.35C610.166 32.8167 608.233 30.7 606.866 28C605.533 25.2667 604.866 22.1167 604.866 18.55C604.866 14.9833 605.533 11.8333 606.866 9.1C608.233 6.36667 610.166 4.23333 612.666 2.7C615.2 1.16667 618.216 0.399999 621.716 0.399999C625.95 0.399999 629.416 1.45 632.116 3.55C634.816 5.65 636.5 8.61667 637.166 12.45H629.816C629.383 10.5833 628.466 9.13333 627.066 8.1C625.7 7.03333 623.9 6.5 621.666 6.5C619.6 6.5 617.816 7 616.316 8C614.85 8.96667 613.716 10.35 612.916 12.15C612.116 13.9167 611.716 16.05 611.716 18.55C611.716 21.0167 612.116 23.15 612.916 24.95C613.716 26.75 614.85 28.1333 616.316 29.1C617.816 30.0667 619.6 30.55 621.666 30.55C623.9 30.55 625.7 30.0667 627.066 29.1C628.433 28.1 629.333 26.7167 629.766 24.95H637.166C636.5 28.5833 634.816 31.4333 632.116 33.5C629.416 35.5667 625.95 36.6 621.716 36.6ZM650.739 36V6.45H640.489V0.999998H667.639V6.45H657.439V36H650.739ZM672.423 36V0.999998H695.423V6.45H679.173V15.6H693.923V20.85H679.173V30.55H695.423V36H672.423ZM701.573 36V0.999998H708.323L724.423 25.15V0.999998H731.173V36H724.423L708.323 11.9V36H701.573Z" fill="black"/>
</svg>
